<svg width="18" height="18" viewBox="0 0 18 18" fill="none" xmlns="http://www.w3.org/2000/svg">
<g clip-path="url(#clip0_579_208)">
<path d="M9 7.36328V10.8487H13.8436C13.6309 11.9696 12.9927 12.9188 12.0354 13.5569L14.9563 15.8233C16.6581 14.2525 17.64 11.9452 17.64 9.20428C17.64 8.56611 17.5827 7.95242 17.4763 7.36338L9 7.36328Z" fill="#4285F4"/>
<path d="M3.95596 10.7129L3.29719 11.2172L0.965332 13.0335C2.44624 15.9708 5.48147 17.9999 8.99962 17.9999C11.4296 17.9999 13.4668 17.1981 14.9559 15.8235L12.035 13.5572C11.2332 14.0972 10.2105 14.4245 8.99962 14.4245C6.65963 14.4245 4.67151 12.8454 3.95964 10.7181L3.95596 10.7129Z" fill="#34A853"/>
<path d="M0.965384 4.9668C0.351781 6.17766 0 7.54404 0 9.00038C0 10.4567 0.351781 11.8231 0.965384 13.034C0.965384 13.0421 3.95998 10.7103 3.95998 10.7103C3.77998 10.1703 3.67359 9.59764 3.67359 9.00029C3.67359 8.40293 3.77998 7.83024 3.95998 7.29025L0.965384 4.9668Z" fill="#FBBC05"/>
<path d="M8.99981 3.58363C10.3253 3.58363 11.5034 4.0418 12.4443 4.92545L15.0216 2.34821C13.4589 0.891874 11.4298 0 8.99981 0C5.48165 0 2.44624 2.02091 0.965332 4.96637L3.95984 7.29001C4.67161 5.16271 6.65982 3.58363 8.99981 3.58363Z" fill="#EA4335"/>
</g>
<defs>
<clipPath id="clip0_579_208">
<rect width="18" height="18" fill="white"/>
</clipPath>
</defs>
</svg>
